<?xml version="1.0" standalone="no"?><!DOCTYPE svg PUBLIC "-//W3C//DTD SVG 1.1//EN" "http://www.w3.org/Graphics/SVG/1.1/DTD/svg11.dtd"><svg t="1718952938167" class="icon" viewBox="0 0 1024 1024" version="1.1" xmlns="http://www.w3.org/2000/svg" p-id="1515" xmlns:xlink="http://www.w3.org/1999/xlink" width="32" height="32"><path d="M903.168 538.2144l-193.092267 193.092267a34.133333 34.133333 0 0 1-48.264533-48.298667l168.96-168.925867-168.96-168.96A34.133333 34.133333 0 0 1 709.973333 296.96l193.092267 193.058133a34.133333 34.133333 0 0 1 0.1024 48.196267z m-421.410133 266.513067a34.133333 34.133333 0 0 1-66.389334-15.9744l126.8736-569.480534a34.133333 34.133333 0 0 1 66.389334 15.9744z m-119.466667-77.585067a34.133333 34.133333 0 0 1-48.264533 0l-193.092267-193.092267a34.133333 34.133333 0 0 1 0-48.264533L314.026667 292.693333a34.133333 34.133333 0 0 1 48.264533 48.298667l-168.96 168.925867 168.96 168.96a34.133333 34.133333 0 0 1-0.1024 48.162133z" fill="#2453A4" p-id="1516"></path></svg>