<?xml version="1.0" standalone="no"?><!DOCTYPE svg PUBLIC "-//W3C//DTD SVG 1.1//EN" "http://www.w3.org/Graphics/SVG/1.1/DTD/svg11.dtd"><svg t="1709801766235" class="icon" viewBox="0 0 1212 1024" version="1.1" xmlns="http://www.w3.org/2000/svg" p-id="2446" width="18.9375" height="16" xmlns:xlink="http://www.w3.org/1999/xlink"><path d="M1046.136 390.228l74.168 21.55-69.163 20.306 47.321 19.815-49.819 9.316z" fill="#1A1A1A" p-id="2447"></path><path d="M350.454 252.09c-9.967 126.627 141.732 329.646 291.648 345.767 58.579 6.299 144.555-49.045 140.079-107.791-12.484-163.849-265.397-172.083-431.727-237.975z" p-id="2448"></path><path d="M84.094 720.725c164.145 182.96 459.762 265.42 674.759 176.867 179.364-73.875 295.663-312.196 295.721-501.21 0.04-129.447-129.602-276.674-321.52-215.98-86.208 27.263-151.982 113.863-207.54 192.525C401.379 538.151 291.301 649.15 84.094 720.725z" p-id="2449"></path><path d="M207.57 351.027c10.445 126.589 192.702 302.688 343.265 294.589 58.832-3.165 134.834-71.564 121.006-128.835-38.566-159.735-289.533-127.352-464.27-165.754z" p-id="2450"></path><path d="M623.803 251.356c52.178 4.662 144.317 21.184 217.025 25.689 59.676 3.698 130.186 2.1 179.366 1.068 35.617 61.052 38.5 126.143 28.45 183.1-104.87 17.563-182.953 4.614-268.517-22.73-77.84-24.875-155.047-62.356-211.003-124.82 24.952-35.5 33.443-43.168 54.679-62.307z" fill="#1296DB" p-id="2451"></path><path d="M1011.213 400.494c-10.316 27.06-46.342 37.335-80.466 22.95-34.125-14.385-53.427-47.983-43.11-75.043 10.314-27.06 46.34-37.337 80.466-22.95 34.124 14.385 53.425 47.981 43.11 75.043z" fill="#FFFFFF" p-id="2452"></path><path d="M1007.676 397.226c-7.784 20.423-33.46 28.816-57.347 18.747-23.887-10.07-36.94-34.79-29.156-55.212 7.784-20.421 33.46-28.814 57.348-18.745 23.888 10.07 36.942 34.787 29.157 55.21z" fill="#1A1A1A" p-id="2453"></path><path d="M998.049 371.014c-2.753 7.22-11.504 10.324-19.548 6.933-8.044-3.39-12.332-11.992-9.58-19.214 2.752-7.22 11.504-10.324 19.548-6.934 8.044 3.39 12.333 11.992 9.58 19.215z" fill="#FFFFFF" p-id="2454"></path><path d="M1007.463 361.78c-13.12-8.182-23.999-19.408-37.058-27.691-12.575-8.485-25.547-16.667-39.647-22.362-6.182-2.137-12.367-4.262-18.52-6.48-4.206 1.002 0.8-2.759 1.676-4.15l12.773-14.256c5.524 0.727 10.402 3.771 15.784 5.063 14.559 5.964 27.716 14.772 40.875 23.278 12.927 8.725 24.99 18.724 38.021 27.261 3.86 0.722 3.652 3.406 0.68 5.034l-14.584 14.303z" fill="#1A1A1A" p-id="2455"></path><path d="M634.617 321.3c-25.152-0.875-54.429 2.252-73.704-21.007-16.972-18.594-30.783-41.743-39.69-66.972-1.543-18.326-1.56-40.713-18.297-49.42-19.318-12.26-42.142-10.497-63.264-13.89-39.86-2.651-77.838 13.968-114.991 28.67-17.64 6.922-39.323 5.65-52.254-12.017-10.075-11.555-16.196-26.52-22.556-40.845-9.314-9.275-9.873-23.681 2.7-27.525l23.22-15.745c11.892 25.737 20.939 58.808 46.017 70.276 25.744 6.517 49.621-10.982 73.892-18.069 34.405-13.09 71.172-15.06 106.706-8.12 20.46 2.15 45.222 11.022 51.408 37.4 1.809 22.872 5.932 45.151 19.61 62.327 12.94 23.243 31.917 45.397 56.83 46.35 8.245 3.236 35.23-3.37 32.26 4.558l-27.888 24.028z" fill="#1296DB" p-id="2456"></path><path d="M617.766 309.235c-18.237-11.894-40.548-22.386-48.305-44.28-5.137-14.658-10.415-29.48-12.986-44.817-2.254-20.843 0.062-41.847-0.977-62.736 3.36-13.331-5.285-25.595-18.635-28.056-17.5-5.1-36.01-4.43-53.952-6.901-16.492-0.899-36.175 2.69-49.256-9.715-9.922-11.832-14.231-27.145-19.148-41.482-1.128-7.487 8.816-7.786 13.137-12.214l23.662-15.013c1.712 13.949 7.829 26.967 13.297 39.754 7.545 13.434 24.073 14.076 37.707 13.739 21.38 1.36 43.095 1.781 64.03 6.53 13.199 3.084 28.752 12.428 27.364 27.791 0.89 31.831-4.383 64.842 6.562 95.536 4.522 13.73 8.96 28.552 21.103 37.667 9.106 8.443 20.558 13.989 30.705 20.725-8.313 7.273-18.924 12.752-28.116 19.371l-6.192 4.1z" fill="#1296DB" p-id="2457"></path></svg>