<?xml version="1.0" standalone="no"?><!DOCTYPE svg PUBLIC "-//W3C//DTD SVG 1.1//EN" "http://www.w3.org/Graphics/SVG/1.1/DTD/svg11.dtd"><svg t="1701851104231" class="icon" viewBox="0 0 1024 1024" version="1.1" xmlns="http://www.w3.org/2000/svg" p-id="4470" xmlns:xlink="http://www.w3.org/1999/xlink" width="64" height="64"><path d="M955.904 389.632c-4.608-20.48-12.288-41.984-26.112-57.856-14.848-16.896-35.328-23.04-56.32-27.136-43.52-8.704-91.648-7.168-130.56 16.896-23.552 14.336-42.496 35.84-61.44 54.784-21.504 21.504-43.008 43.008-63.488 66.048-17.92 19.968-34.816 40.448-50.176 62.464-5.12-16.896-17.408-29.184-32.256-36.864 8.704-20.992 15.872-42.496 18.432-65.536 3.584-28.16 6.144-54.784 18.944-80.896 21.504-45.056 60.416-79.872 107.52-96.256 11.776-4.096 6.656-23.04-5.12-18.944-46.592 15.872-86.016 48.128-111.104 90.624-12.8 21.504-21.504 45.056-25.088 69.632-5.12 33.28-8.704 62.976-21.504 94.208-9.728-2.56-19.968-3.072-29.696-1.536-7.168-50.688-15.36-102.4-39.936-148.48-24.064-44.544-63.488-73.216-105.472-99.328-10.752-6.656-20.48 10.24-9.728 16.896 40.96 26.112 78.848 53.76 101.376 98.304 21.504 42.496 28.672 90.624 35.328 137.728-13.312 5.632-24.576 15.872-29.696 31.232-40.96-55.808-92.672-104.96-142.848-151.552-35.328-32.768-78.336-46.592-126.464-44.032-45.056 3.072-86.016 13.824-105.472 57.856-38.4 88.064-0.512 189.952 65.024 253.44 16.384 15.872 34.816 30.208 54.272 42.496 8.704 5.632 17.408 10.752 26.112 15.36 11.776 6.144 30.72 10.752 39.936 20.48 17.92 18.944-13.824 53.76-19.456 72.704-7.168 23.04-8.704 50.176-4.096 74.24 9.216 47.104 49.152 74.752 95.744 76.288 50.688 1.536 93.696-28.672 131.072-59.904 4.608 9.728 9.728 19.456 16.896 28.16 12.8 15.872 34.304 31.232 55.808 25.088 21.504-6.144 30.208-31.232 33.792-51.2 32.768 27.136 69.12 52.736 112.64 57.344 38.4 4.096 80.896-10.24 100.864-45.056 22.528-38.912 16.384-92.672-4.608-130.56-6.656-12.288-20.992-32.768-8.192-46.592 7.68-8.192 24.576-12.288 34.816-17.408 20.48-10.752 39.936-23.04 58.368-36.864 73.216-57.856 123.392-151.04 101.888-246.272z m-405.504 137.216c0 1.024 0 2.048 0.512 2.56-10.24 16.384-19.456 33.28-27.648 51.2-9.728-6.656-20.992-10.752-35.328-9.728-1.536 0-2.56 0.512-3.584 1.024-8.704-17.92-18.432-35.328-29.184-52.224-3.072-62.464 98.304-51.2 95.232 7.168z m-95.232 220.16v-32.256c30.72-2.048 60.928-3.072 91.648-2.56 0 17.92-0.512 35.328-1.536 53.248h-2.048c-29.184 1.536-58.368 2.048-87.552 1.536-0.512-7.168-0.512-13.824-0.512-19.968z m1.024-51.712c2.048-35.84 8.704-71.68 26.624-102.4 1.024-0.512 2.56-1.536 3.584-2.56h1.536c45.568-2.56 56.832 61.952 58.88 102.4-30.208-0.512-60.416 0.512-90.624 2.56z m-131.584 198.144c-49.664-0.512-81.408-34.816-81.408-83.968 0-24.064 5.12-45.056 16.896-66.048 8.192-14.848 16.896-31.232 12.8-49.152-3.584-17.408-16.896-24.064-31.744-30.72-18.432-8.704-36.352-18.432-52.736-29.696-74.752-49.664-131.584-134.144-117.76-227.328 3.072-19.968 9.216-41.472 20.992-57.856 14.848-20.48 41.984-25.088 66.048-28.16 46.592-5.632 89.6 4.608 124.928 36.864 70.144 65.024 143.36 135.168 184.832 223.232-28.16 45.568-31.232 101.376-31.744 154.112 0 32.256 0.512 67.072 9.728 98.816-33.792 29.696-73.728 60.416-120.832 59.904z m196.608-7.68c-29.184 11.776-51.2-37.376-57.344-58.368-4.096-13.824-6.144-27.648-7.168-41.472 28.672 1.024 57.856 0.512 86.528-1.536h1.536c0 5.632-0.512 11.264-0.512 17.408-1.024 22.528 3.072 73.728-23.04 83.968z m327.68-271.872c-15.872 12.8-32.768 24.576-50.688 34.304-15.872 9.216-38.4 14.848-51.712 27.648-29.696 29.184 8.704 68.608 16.384 97.792 13.312 51.2-4.096 108.544-61.44 118.272-53.248 8.704-99.84-26.112-137.728-58.88-0.512-0.512-1.024-0.512-1.536-1.024 2.048-23.04 1.536-47.104 2.56-70.144 1.024-31.232 3.584-62.976-1.024-93.696-3.584-24.064-10.752-53.76-26.112-74.24 0.512-0.512 0.512-1.024 1.024-2.048 36.864-82.944 100.864-148.992 164.864-211.456 15.872-15.872 31.744-32.768 51.2-44.544 20.48-11.776 43.52-16.896 67.072-17.408 21.504-0.512 43.52 2.048 64 8.192 25.6 7.68 38.4 24.576 46.592 49.152 30.208 89.088-15.36 181.76-83.456 238.08z" fill="#66A771" p-id="4471"></path></svg>