<?xml version="1.0" standalone="no"?><!DOCTYPE svg PUBLIC "-//W3C//DTD SVG 1.1//EN" "http://www.w3.org/Graphics/SVG/1.1/DTD/svg11.dtd"><svg t="1721607111520" class="icon" viewBox="0 0 1024 1024" version="1.1" xmlns="http://www.w3.org/2000/svg" p-id="2802" width="40" height="40" xmlns:xlink="http://www.w3.org/1999/xlink"><path d="M602.435 486.965s37.342 178.139 176.66 113.564c0 0-58.219-55.21-33.83-87.636C769.64 480.444 864.57 383.465 864.57 383.465s77.58 79.441 9.058 154.943c0 0 68.32-58.061 150.364 8.337 0 0-113.045 172.36-186.61 104.633 0 0-133.03 209.5-452.678 234.52" fill="#469B9D" p-id="2803"></path><path d="M301.96 249.085s-17.62-26.438-61.67-23.504c-44.051 2.942-17.62-64.597 30.835-55.795 48.463 8.81 24.967 46.985 30.835 79.299z m4.87-80.087s0.751-19.901-22.7-34.587c-23.459-14.686 14.784-39.286 36.149-17.02 21.38 22.273-4.578 33.034-13.448 51.607z m9.899 80.087s17.62-26.438 61.663-23.504c44.058 2.942 17.636-64.597-30.828-55.795-48.455 8.81-24.967 46.985-30.835 79.299z" fill="#2595CE" p-id="2804"></path><path d="M0 585.858a309.337 309.337 0 1 0 618.674 0 309.337 309.337 0 1 0-618.674 0z" fill="#469B9D" p-id="2805"></path><path d="M0.413 601.88s106.374 41.994 186.01-7.325c45.17-27.968 40.967 172.473 172.008 207.594 131.033 35.112 348.532-17.305 478.958-150.77 0 0-275.553 400.762-681.283 215.037 0 0.007-149.39-63.825-155.693-264.536z" fill="#D8D8D8" p-id="2806"></path><path d="M264.551 584.004c-0.067 23.67 3.205 47.278 9.83 69.738a189.822 189.822 0 0 0 5.854 16.51c2.244 5.38 4.803 10.604 7.587 15.692l4.503 7.421 5.02 7.047 5.456 6.686c1.884 2.162 3.985 4.128 5.966 6.206 4.187 3.903 8.555 7.632 13.365 10.732 2.297 1.718 4.795 3.114 7.324 4.45 2.5 1.396 4.983 2.814 7.67 3.82 5.185 2.438 10.686 4.09 16.187 5.718 5.613 1.156 11.174 2.709 16.952 3.092l8.6 0.9 8.668 0.263c5.786 0.42 11.594-0.398 17.395-0.526 5.786-0.472 11.564-1.388 17.357-2.048l17.215-3.34-1.928 1.269c1.448-2.057 2.791-5.028 3.932-7.722 1.05-2.83 2.019-5.711 2.687-8.69 0.878-2.927 1.103-6.026 1.703-9.028 0.24-3.07 0.653-6.131 0.75-9.223-0.037-3.092 0.12-6.199-0.075-9.305l-0.802-9.313-1.599-9.253c-0.435-3.107-1.486-6.101-2.191-9.156-0.803-3.039-1.509-6.108-2.65-9.065l-3.091-8.938c-1.013-2.994-2.379-5.853-3.565-8.795-1.238-2.911-2.393-5.868-3.714-8.75-2.882-5.643-5.621-11.391-8.638-16.99l-9.553-16.562 10.829 15.804c3.37 5.426 6.484 11.024 9.748 16.548 1.509 2.821 2.867 5.74 4.3 8.6 1.366 2.911 2.98 5.71 4.128 8.72l3.512 8.997c1.268 2.972 2.116 6.094 3.054 9.186 0.848 3.114 2.034 6.146 2.611 9.343l2.012 9.53 1.208 9.703c0.33 3.25 0.292 6.53 0.457 9.809 0.023 3.279-0.277 6.566-0.442 9.853-0.586 3.257-0.796 6.566-1.711 9.785a73.738 73.738 0 0 1-2.844 9.584c-1.329 3.174-2.5 6.108-4.676 9.32l-0.683 1.013-1.245 0.255-17.605 3.64c-5.959 0.773-11.895 1.77-17.883 2.349-6.026 0.217-12.015 1.11-18.078 0.773l-9.08-0.173c-3.017-0.195-6.034-0.66-9.05-0.99-6.057-0.48-11.978-2.184-17.899-3.498-5.838-1.793-11.662-3.64-17.185-6.31-2.851-1.111-5.493-2.657-8.157-4.188a59.06 59.06 0 0 1-7.775-4.856c-5.103-3.384-9.725-7.421-14.13-11.639-2.079-2.229-4.278-4.352-6.251-6.671l-5.674-7.16-4.998-7.609-4.412-7.94a170.094 170.094 0 0 1-7.257-16.546 194.108 194.108 0 0 1-5.365-17.17 210.647 210.647 0 0 1-3.7-17.546 244.35 244.35 0 0 1-2.034-17.755c-0.9-11.864-1.11-23.789 0.06-35.6z" fill="#218588" p-id="2807"></path><path d="M101.106 482.11a28.757 28.757 0 1 0 57.514 0 28.757 28.757 0 1 0-57.514 0z" fill="#434849" p-id="2808"></path><path d="M129.863 476.572a10.859 10.859 0 1 0 21.718 0 10.859 10.859 0 1 0-21.718 0z" fill="#FFFFFF" p-id="2809"></path></svg>